<svg width="37" height="43" viewBox="0 0 37 43" fill="none" xmlns="http://www.w3.org/2000/svg">
<path d="M31.624 34.3367C32.4251 30.8924 33.9604 22.5185 32.1625 14.8806C31.831 13.4738 31.4783 12.1628 31.1199 10.9533C36.7376 14.1983 42.731 14.2519 43.0952 14.2519H43.1029L45.6367 14.2462L44.941 11.8101C44.8585 11.5149 42.8115 4.544 36.7472 0.496C32.2009 -2.54383 26.8361 -3 23.0028 -3C19.1695 -3 13.8756 -2.24483 9.33313 0.787333C3.28796 4.82383 1.16429 11.4843 1.07804 11.766L0.309458 14.2443L2.90463 14.25C3.09438 14.2289 7.60621 14.227 12.4707 12.1532C12.6049 15.9539 14.0385 18.9458 14.1171 19.1088L14.9317 20.7782L16.626 20.0173C16.8254 19.9272 20.2505 18.3593 22.9951 15.2582C23.0009 15.5668 23.0047 15.8696 23.0047 16.1667C23.0047 23.542 19.4742 31.1933 18.2015 33.7099C8.10071 34.9193 0.416792 39.4772 0.046875 39.6995L2.02104 42.9847C2.11687 42.9272 11.7232 37.25 23.0028 37.25C34.2824 37.25 43.8868 42.9272 43.9845 42.9847L45.9587 39.6995C45.6367 39.5059 39.7851 36.0348 31.624 34.3367ZM13.9063 7.051C11.2038 8.85458 8.20421 9.69217 6.02304 10.0813C7.07146 8.19333 8.81754 5.74 11.4606 3.97475C14.167 2.16925 17.3256 1.39683 19.6467 1.06908C18.4507 2.911 16.559 5.27808 13.9082 7.04908L13.9063 7.051ZM22.0924 9.53117C21.0516 12.3448 18.581 14.3631 16.8618 15.4863C16.4612 14.0737 16.0951 12.0554 16.4056 9.98158C19.1062 8.09175 21.0995 5.73425 22.4623 3.74667C22.7575 5.49275 22.813 7.58192 22.0924 9.53117ZM34.6159 3.6815C37.3318 5.49467 39.076 8.1205 40.0918 10.1023C37.8991 9.72283 34.8459 8.88717 32.0955 7.05292C30.748 6.154 29.5961 5.09408 28.6301 4.0265L28.5918 3.93642L28.5611 3.94983C27.6181 2.89758 26.8553 1.8415 26.2688 0.925334C28.5995 1.16108 31.8482 1.83383 34.6159 3.6815ZM27.827 33.7138C26.2707 33.5259 24.655 33.4186 23.0009 33.4186C22.8648 33.4186 22.7287 33.4186 22.5926 33.4224C24.2965 29.6638 26.8342 22.9363 26.8342 16.1686C26.8342 13.8264 26.654 11.099 26.4547 8.99067C27.1121 10.8575 27.8117 13.1326 28.4308 15.7603C30.0753 22.7543 28.5209 30.7717 27.827 33.7138Z" fill="#4DD427"/>
</svg>
