<svg width="37" height="43" viewBox="0 0 37 43" fill="none" xmlns="http://www.w3.org/2000/svg">
<path d="M44.0846 23.8333V20.9085C44.0846 18.9305 43.0056 17.1154 41.2691 16.1667C41.2691 16.1667 25.1461 7.39217 24.918 7.304V4.71842L30.668 0.992416L21.0846 -3V7.304C20.8566 7.39025 4.73355 16.1667 4.73355 16.1667C2.99705 17.1116 1.91797 18.9286 1.91797 20.9085V23.8333H5.7513V39.1667H1.91797V43H44.0846V39.1667H40.2513V23.8333H44.0846ZM6.5678 19.5323L22.25 10.9783C22.7196 10.7195 23.2811 10.7195 23.7507 10.9783L39.4348 19.5323C39.6476 19.6492 39.8258 19.8102 39.96 20H6.04072C6.1768 19.8083 6.35505 19.6473 6.5678 19.5323ZM21.0846 23.8333V39.1667H17.2513V23.8333H21.0846ZM24.918 23.8333H28.7513V39.1667H24.918V23.8333ZM9.58464 23.8333H13.418V39.1667H9.58464V23.8333ZM36.418 39.1667H32.5846V23.8333H36.418V39.1667Z" fill="#4DD427"/>
</svg>
