<svg width="20" height="20" viewBox="0 0 20 20" fill="none" xmlns="http://www.w3.org/2000/svg">
<path d="M20 7.5H18.3875C17.5475 4.675 15.3258 2.4525 12.5 1.6125V0L7.5 0V1.6125C4.675 2.4525 2.4525 4.67417 1.6125 7.5H0L0 12.5H1.6125C2.4525 15.325 4.67417 17.5475 7.5 18.3875V20H12.5V18.3875C15.325 17.5475 17.5475 15.3258 18.3875 12.5H20V7.5ZM18.3333 10.8333H16.6667V9.16667H18.3333V10.8333ZM9.16667 1.66667H10.8333V3.33333H9.16667V1.66667ZM3.33333 10.8333H1.66667V9.16667H3.33333V10.8333ZM10.8333 18.3333H9.16667V16.6667H10.8333V18.3333ZM12.5 16.63V15H7.5V16.63C5.59667 15.9133 4.08667 14.4033 3.37 12.5H5V7.5H3.37C4.08667 5.59667 5.59667 4.08667 7.5 3.37V5H12.5V3.37C14.4033 4.08667 15.9133 5.59667 16.63 7.5H15V12.5H16.63C15.9133 14.4033 14.4033 15.9133 12.5 16.63Z" fill="#F36A1D"/>
</svg>
