<svg width="12" height="12" viewBox="0 0 12 12" fill="none" xmlns="http://www.w3.org/2000/svg">
<g clip-path="url(#clip0_5432_1894)">
<path d="M6 0C2.6915 0 0 2.6915 0 6C0 9.3085 2.6915 12 6 12C9.3085 12 12 9.3085 12 6C12 2.6915 9.3085 0 6 0ZM6 11C3.243 11 1 8.757 1 6C1 3.243 3.243 1 6 1C8.757 1 11 3.243 11 6C11 8.757 8.757 11 6 11ZM6.6895 3.1895L3 6.879V9H5.121L8.8105 5.3105C9.3955 4.7255 9.3955 3.7745 8.8105 3.1895C8.2255 2.6045 7.2745 2.6045 6.6895 3.1895ZM4.707 8H4V7.293L6.168 5.125L6.875 5.832L4.707 8ZM8.1035 4.6035L7.582 5.125L6.875 4.418L7.3965 3.8965C7.592 3.701 7.908 3.701 8.1035 3.8965C8.299 4.092 8.2985 4.4085 8.1035 4.6035Z" fill="#F36A1D"/>
</g>
<defs>
<clipPath id="clip0_5432_1894">
<rect width="12" height="12" fill="white"/>
</clipPath>
</defs>
</svg>
