<svg width="37" height="43" viewBox="0 0 37 43" fill="none" xmlns="http://www.w3.org/2000/svg">
<path d="M7.66667 21.9167H13.4167V25.75H7.66667V21.9167ZM17.25 25.75H23V21.9167H17.25V25.75ZM7.66667 33.4167H13.4167V29.5833H7.66667V33.4167ZM17.25 33.4167H23V29.5833H17.25V33.4167ZM7.66667 10.4167H13.4167V6.58333H7.66667V10.4167ZM17.25 10.4167H23V6.58333H17.25V10.4167ZM7.66667 18.0833H13.4167V14.25H7.66667V18.0833ZM17.25 18.0833H23V14.25H17.25V18.0833ZM46 12.3333V43H0L0 2.75C0 1.22501 0.605802 -0.23753 1.68414 -1.31586C2.76247 -2.3942 4.22501 -3 5.75 -3L24.9167 -3C26.4417 -3 27.9042 -2.3942 28.9825 -1.31586C30.0609 -0.23753 30.6667 1.22501 30.6667 2.75V6.58333H40.25C41.775 6.58333 43.2375 7.18914 44.3159 8.26747C45.3942 9.3458 46 10.8083 46 12.3333ZM26.8333 2.75C26.8333 2.24167 26.6314 1.75416 26.272 1.39471C25.9125 1.03527 25.425 0.833333 24.9167 0.833333H5.75C5.24167 0.833333 4.75416 1.03527 4.39471 1.39471C4.03527 1.75416 3.83333 2.24167 3.83333 2.75V39.1667H26.8333V2.75ZM42.1667 12.3333C42.1667 11.825 41.9647 11.3375 41.6053 10.978C41.2458 10.6186 40.7583 10.4167 40.25 10.4167H30.6667V39.1667H42.1667V12.3333ZM34.5 25.75H38.3333V21.9167H34.5V25.75ZM34.5 33.4167H38.3333V29.5833H34.5V33.4167ZM34.5 18.0833H38.3333V14.25H34.5V18.0833Z" fill="#4DD427"/>
</svg>
