<svg width="16" height="16" viewBox="0 0 16 16" fill="none" xmlns="http://www.w3.org/2000/svg">
<g clip-path="url(#clip0_2612_7038)">
<path d="M15.298 2.476C14.8506 2.09533 14.2566 1.93267 13.6726 2.02667C13.5286 2.05 13.392 2.09467 13.2606 2.14933C13.0313 1.298 12.26 0.666667 11.3366 0.666667C10.9786 0.666667 10.6473 0.768667 10.356 0.934C10.0013 0.374667 9.37997 0 8.66997 0C7.74731 0 6.97597 0.632 6.74597 1.48333C6.61464 1.42867 6.47797 1.384 6.33397 1.36067C5.74931 1.26333 5.15464 1.42867 4.70797 1.80933C4.25997 2.19 4.00331 2.74533 4.00331 3.33333V9.04333L3.36664 8.538C2.56197 7.78533 1.29531 7.82933 0.542641 8.63333C-0.210026 9.43867 -0.168026 10.7073 0.629307 11.454L2.75797 13.5067C4.42464 15.114 6.61931 15.9993 8.93531 15.9993H10.0453C13.3306 15.9993 16.0033 13.3267 16.0033 10.0413V4C16.0033 3.41267 15.7466 2.85667 15.298 2.476ZM14.67 10.042C14.67 12.592 12.5953 14.6667 10.0453 14.6667H8.93531C6.96597 14.6667 5.10131 13.914 3.68397 12.5473L1.54797 10.488C1.27931 10.2367 1.26531 9.81333 1.51664 9.544C1.76664 9.27533 2.18797 9.26133 2.49664 9.54667L5.33664 11.8073V3.33333C5.33664 3.13733 5.42197 2.952 5.57197 2.82467C5.72331 2.696 5.91731 2.64267 6.12064 2.676C6.42864 2.726 6.66997 3.046 6.66997 3.404V7.33267H8.00331V2C8.00331 1.63267 8.30264 1.33333 8.66997 1.33333C9.03731 1.33333 9.33664 1.63267 9.33664 2V7.33333H10.67V2.66667C10.67 2.29933 10.9693 2 11.3366 2C11.704 2 12.0033 2.29933 12.0033 2.66667V7.33333H13.3366V4.07133C13.3366 3.71267 13.578 3.39267 13.8866 3.34267C14.09 3.312 14.284 3.36267 14.4346 3.49133C14.5846 3.61867 14.67 3.804 14.67 4V10.042Z" fill="#B4B4AF"/>
</g>
<defs>
<clipPath id="clip0_2612_7038">
<rect width="16" height="16" fill="white"/>
</clipPath>
</defs>
</svg>
