<svg width="12" height="12" viewBox="0 0 12 12" fill="none" xmlns="http://www.w3.org/2000/svg">
<g clip-path="url(#clip0_39_4596)">
<path d="M8.74998 5.49982C9.16419 5.49982 9.49998 5.16403 9.49998 4.74982C9.49998 4.3356 9.16419 3.99982 8.74998 3.99982C8.33577 3.99982 7.99998 4.3356 7.99998 4.74982C7.99998 5.16403 8.33577 5.49982 8.74998 5.49982Z" fill="#B4B4AF"/>
<path d="M6.2499 3.99982C6.66411 3.99982 6.9999 3.66403 6.9999 3.24982C6.9999 2.83561 6.66411 2.49982 6.2499 2.49982C5.83569 2.49982 5.4999 2.83561 5.4999 3.24982C5.4999 3.66403 5.83569 3.99982 6.2499 3.99982Z" fill="#B4B4AF"/>
<path d="M3.75005 5.49982C4.16427 5.49982 4.50005 5.16403 4.50005 4.74982C4.50005 4.3356 4.16427 3.99982 3.75005 3.99982C3.33584 3.99982 3.00005 4.3356 3.00005 4.74982C3.00005 5.16403 3.33584 5.49982 3.75005 5.49982Z" fill="#B4B4AF"/>
<path d="M3.75005 8.49983C4.16427 8.49983 4.50005 8.16404 4.50005 7.74982C4.50005 7.33561 4.16427 6.99982 3.75005 6.99982C3.33584 6.99982 3.00005 7.33561 3.00005 7.74982C3.00005 8.16404 3.33584 8.49983 3.75005 8.49983Z" fill="#B4B4AF"/>
<path d="M6.04145 11.9999C4.84608 11.9998 3.67798 11.6427 2.68696 10.9742C1.69593 10.3058 0.927154 9.35661 0.479205 8.24834C0.0312555 7.14007 -0.0754428 5.92326 0.172792 4.75395C0.421027 3.58463 1.01288 2.51612 1.87245 1.68543C2.44986 1.12278 3.13571 0.683516 3.88827 0.394355C4.64083 0.105193 5.44436 -0.027815 6.24995 0.00342605C7.77233 0.0744823 9.21244 0.714918 10.2849 1.79779C11.3573 2.88067 11.9837 4.32693 12.04 5.84993C12.0603 6.6266 11.9287 7.39976 11.6525 8.12593C11.5962 8.27387 11.5037 8.40531 11.3834 8.50814C11.2631 8.61098 11.1188 8.68192 10.964 8.71443C10.8065 8.74911 10.6429 8.74341 10.4882 8.69786C10.3336 8.65232 10.193 8.5684 10.0795 8.45393L10.0295 8.40393C9.7791 8.15359 9.4599 7.98344 9.11251 7.91513C8.76512 7.84681 8.40526 7.88344 8.07876 8.02033C7.75226 8.15723 7.47389 8.3882 7.2791 8.68384C7.08431 8.97948 6.98191 9.3264 6.98495 9.68043L7.00495 11.9384L6.54295 11.9769C6.37645 11.9889 6.21045 11.9999 6.04145 11.9999ZM6.04145 0.999926C4.71537 0.993959 3.44123 1.51502 2.49933 2.44848C1.55743 3.38195 1.02492 4.65134 1.01895 5.97743C1.01298 7.30351 1.53405 8.57765 2.46751 9.51955C3.40097 10.4615 4.67037 10.994 5.99645 10.9999L5.98445 9.68743C5.98219 9.31793 6.05308 8.95164 6.19304 8.60966C6.33301 8.26769 6.53927 7.95681 6.79995 7.69493C7.32214 7.17343 8.02996 6.88051 8.76795 6.88051C9.50595 6.88051 10.2138 7.17343 10.736 7.69493L10.743 7.70193C10.9563 7.11692 11.0572 6.49689 11.0405 5.87443C10.9937 4.6057 10.4721 3.40082 9.57887 2.49856C8.68569 1.5963 7.48614 1.06249 6.21795 1.00293C6.15845 0.999926 6.09995 0.999926 6.04095 0.999926H6.04145Z" fill="#B4B4AF"/>
</g>
<defs>
<clipPath id="clip0_39_4596">
<rect width="12" height="12" fill="white"/>
</clipPath>
</defs>
</svg>
