<svg width="12" height="12" viewBox="0 0 12 12" fill="none" xmlns="http://www.w3.org/2000/svg">
<g clip-path="url(#clip0_5432_7036)">
<path d="M11.5605 3.42274C12.1455 2.83824 12.1455 1.88623 11.5605 1.30123L10.698 0.438735C10.131 -0.128765 9.14197 -0.127265 8.57697 0.438735L6.61147 2.40423L4.24997 0.0427345L1.13697 3.15524L3.49897 5.51723L3.47097 5.54523C3.29147 5.51774 3.10997 5.49973 2.92497 5.49973C1.96997 5.49973 1.07197 5.87174 0.396469 6.54674L0.0429688 6.90024L2.21747 9.07474L1.39647 9.89574L2.10347 10.6027L2.92447 9.78174L5.09897 11.9562L5.45247 11.6027C6.12797 10.9272 6.49997 10.0297 6.49997 9.07474C6.49997 8.88974 6.48197 8.70824 6.45447 8.52874L6.48297 8.50024L8.84447 10.8617L11.9575 7.74924L9.59597 5.38773L11.561 3.42224L11.5605 3.42274ZM9.28447 1.14573C9.47297 0.957735 9.80147 0.956735 9.99097 1.14573L10.8535 2.00823C11.0485 2.20323 11.0485 2.52024 10.8535 2.71573L6.11197 7.45774C5.94297 7.12574 5.72347 6.81774 5.45247 6.54724C5.18147 6.27674 4.87397 6.05674 4.54247 5.88824L9.28447 1.14573ZM2.55147 3.15524L4.24997 1.45673L5.90447 3.11124L4.20597 4.80973L2.55097 3.15474L2.55147 3.15524ZM5.06497 10.5087L1.49147 6.93474C1.91197 6.65174 2.40697 6.49974 2.92497 6.49974C3.61297 6.49974 4.25947 6.76774 4.74597 7.25374C5.23247 7.74024 5.50047 8.38724 5.50047 9.07524C5.50047 9.59324 5.34797 10.0882 5.06497 10.5087ZM10.543 7.74974L8.84447 9.44824L7.18997 7.79374L8.88847 6.09524L10.543 7.74974Z" fill="#B4B4AF"/>
</g>
<defs>
<clipPath id="clip0_5432_7036">
<rect width="12" height="12" fill="white"/>
</clipPath>
</defs>
</svg>
