<svg width="16" height="12" viewBox="0 0 16 12" fill="none" xmlns="http://www.w3.org/2000/svg">
<path d="M14.6667 8V0H1.33333V8H0V10C0 11.1027 0.897333 12 2 12H14C15.1027 12 16 11.1027 16 10V8H14.6667ZM2.66667 1.33333H13.3333V8H10.0573L9.39067 8.66667H6.60933L5.94267 8H2.66667V1.33333ZM14.6667 10C14.6667 10.3673 14.3673 10.6667 14 10.6667H2C1.63267 10.6667 1.33333 10.3673 1.33333 10V9.33333H5.39067L6.05733 10H9.94267L10.6093 9.33333H14.6667V10Z" fill="#B4B4AF"/>
<path d="M10.7384 6.8V3.734C10.7384 3.00333 10.1437 2.408 9.41437 2.408L6.40333 2.4L6.4 3.73333H8.4697L5.8207 6.38283L6.76154 7.3275L9.40504 4.684V6.8H10.7384Z" fill="#B4B4AF"/>
</svg>
