<svg width="12" height="12" viewBox="0 0 12 12" fill="none" xmlns="http://www.w3.org/2000/svg">
<path d="M0.72197 3.33474C0.554549 3.38258 0.402519 3.4733 0.280926 3.59794C0.159332 3.72257 0.0723877 3.87679 0.0286968 4.04534C-0.0149942 4.21389 -0.0139177 4.39093 0.0318196 4.55894C0.0775569 4.72694 0.16637 4.8801 0.28947 5.00324L1.99547 6.70724V10.0002H5.29197L7.00947 11.7152C7.10165 11.8082 7.21131 11.8821 7.33212 11.9325C7.45294 11.983 7.58254 12.009 7.71347 12.0092C7.79952 12.0091 7.88521 11.998 7.96847 11.9762C8.13695 11.9338 8.29128 11.8477 8.41592 11.7267C8.54056 11.6056 8.63112 11.4539 8.67847 11.2867L11.9955 0.0107422L0.72197 3.33474ZM0.99997 4.29624L9.51397 1.78624L2.99647 8.29324V6.29324L0.99997 4.29624ZM7.71997 11.0082L5.70647 9.00024H3.70647L10.223 2.48924L7.71997 11.0082Z" fill="#B4B4AF"/>
</svg>
