<svg width="20" height="20" viewBox="0 0 20 20" fill="none" xmlns="http://www.w3.org/2000/svg">
<g clip-path="url(#clip0_5432_32635)">
<path d="M8.75 2.5C3.925 2.5 0 6.425 0 11.25C0 16.075 3.925 20 8.75 20C13.575 20 17.5 16.075 17.5 11.25C17.5 6.425 13.575 2.5 8.75 2.5ZM8.75 18.3333C4.84417 18.3333 1.66667 15.1558 1.66667 11.25C1.66667 10.1433 1.92167 9.095 2.37667 8.16083L3.33333 9.16667H5.83333L6.66667 10V11.6667L8.33333 13.3333V15.8333H10L12.5 11.25L9.16667 9.16667H7.08333L5.83333 7.91667L7.08333 6.66667L8.75 7.5L9.58333 6.66667L8.33333 4.58333C8.33333 4.58333 8.43417 4.42667 8.60083 4.16833C8.65 4.1675 8.7 4.16667 8.75 4.16667C12.6558 4.16667 15.8333 7.34417 15.8333 11.25C15.8333 15.1558 12.6558 18.3333 8.75 18.3333ZM20 2.08333C20 3.23417 19.0675 4.16667 17.9167 4.16667C16.7658 4.16667 15.8333 3.23417 15.8333 2.08333C15.8333 0.9325 16.7658 0 17.9167 0C19.0675 0 20 0.9325 20 2.08333Z" fill="#B4B4AF"/>
</g>
<defs>
<clipPath id="clip0_5432_32635">
<rect width="20" height="20" fill="white"/>
</clipPath>
</defs>
</svg>
