<svg width="20" height="20" viewBox="0 0 20 20" fill="none" xmlns="http://www.w3.org/2000/svg">
<path d="M17.5 1.5H2.5C1.12167 1.5 0 2.62167 0 4L0 18.1667H20V4C20 2.62167 18.8783 1.5 17.5 1.5ZM10.8333 6.5H18.3333V10.6667H10.8333V6.5ZM9.16667 10.6667H1.66667V6.5H9.16667V10.6667ZM2.5 3.16667H17.5C17.9592 3.16667 18.3333 3.54083 18.3333 4V4.83333H1.66667V4C1.66667 3.54083 2.04083 3.16667 2.5 3.16667ZM1.66667 12.3333H9.16667V16.5H1.66667V12.3333ZM10.8333 16.5V12.3333H18.3333V16.5H10.8333Z" fill="#F36A1D"/>
</svg>
