<svg width="12" height="12" viewBox="0 0 12 12" fill="none" xmlns="http://www.w3.org/2000/svg">
<g clip-path="url(#clip0_5432_20372)">
<path d="M3.346 7.019L0.505 8.6955L0 7.831L1.971 6.6835C1.8864 6.46294 1.82637 6.23372 1.792 6H-0.5V5H1.7925C1.82869 4.76543 1.89056 4.53555 1.977 4.3145L0 3.163L0.5 2.3L2.4805 3.45C2.62429 3.27421 2.78581 3.11369 2.9625 2.971L1.8125 0.9955L2.6775 0.493L3.8275 2.472C4.04457 2.3882 4.27004 2.32802 4.5 2.2925V0H5.5V2.293C5.7323 2.32744 5.96015 2.38713 6.1795 2.471L7.3295 0.4935L8.194 0.9935L7.0415 2.978C7.21735 3.11967 7.37804 3.27919 7.521 3.454L9.506 2.3L10.009 3.1645L8.0215 4.32C8.08165 4.46818 8.13079 4.62059 8.1685 4.776C7.80235 4.6276 7.4151 4.53783 7.021 4.51C6.83519 4.13237 6.54746 3.81425 6.19031 3.59158C5.83317 3.36892 5.42087 3.2506 5 3.25C4.57598 3.25064 4.16077 3.37108 3.80223 3.59745C3.44369 3.82381 3.15641 4.14688 2.9735 4.52942C2.79059 4.91196 2.7195 5.3384 2.76842 5.75959C2.81734 6.18078 2.98428 6.57957 3.25 6.91L3.346 7.019ZM11.5 9.5C11.4992 10.1628 11.2356 10.7982 10.7669 11.2669C10.2982 11.7356 9.6628 11.9992 9 12H4.5C4.0124 12.0003 3.54148 11.8225 3.17578 11.5C2.81008 11.1775 2.5748 10.7325 2.51417 10.2487C2.45355 9.76484 2.57176 9.27554 2.84658 8.87277C3.1214 8.46999 3.53389 8.18149 4.0065 8.0615C4.04682 7.45979 4.28381 6.88802 4.68098 6.43422C5.07816 5.98041 5.61349 5.66975 6.20455 5.55006C6.79561 5.43037 7.40963 5.50829 7.95206 5.77182C8.4945 6.03535 8.93526 6.46988 9.2065 7.0085C9.8314 7.06099 10.4138 7.34613 10.8386 7.80752C11.2633 8.2689 11.4993 8.8729 11.5 9.5ZM10.5 9.5C10.5 9.10218 10.342 8.72064 10.0607 8.43934C9.77936 8.15804 9.39782 8 9 8H8.5185L8.401 7.6665C8.26394 7.27651 7.99324 6.94762 7.63688 6.73813C7.28052 6.52863 6.8615 6.45205 6.45408 6.52195C6.04665 6.59185 5.67713 6.80372 5.41097 7.12002C5.14482 7.43632 4.99923 7.83662 5 8.25C5 8.3165 5.004 8.382 5.0105 8.447L5.0705 9H4.5135C4.38218 8.99911 4.25197 9.0241 4.1303 9.07354C4.00864 9.12297 3.8979 9.19589 3.80442 9.28812C3.71093 9.38035 3.63653 9.49009 3.58545 9.61108C3.53438 9.73207 3.50764 9.86193 3.50675 9.99325C3.50586 10.1246 3.53085 10.2548 3.58029 10.3764C3.62972 10.4981 3.70264 10.6088 3.79487 10.7023C3.8871 10.7958 3.99684 10.8702 4.11783 10.9213C4.23882 10.9724 4.36868 10.9991 4.5 11H9C9.39782 11 9.77936 10.842 10.0607 10.5607C10.342 10.2794 10.5 9.89782 10.5 9.5Z" fill="#4F4D4A"/>
</g>
<defs>
<clipPath id="clip0_5432_20372">
<rect width="12" height="12" fill="white"/>
</clipPath>
</defs>
</svg>
